<?xml version="1.0" encoding="utf-8"?>
<!-- Generator: Adobe Illustrator 28.0.0, SVG Export Plug-In . SVG Version: 6.00 Build 0)  -->
<svg version="1.1" id="Layer_2_00000026145043097805947030000013715558489485735083_"
	 xmlns="http://www.w3.org/2000/svg" xmlns:xlink="http://www.w3.org/1999/xlink" x="0px" y="0px" viewBox="0 0 274.4 407.5"
	 style="enable-background:new 0 0 274.4 407.5;" xml:space="preserve">
<style type="text/css">
	.st0{fill:#064B80;}
	.st1{fill:#D47214;}
	.st2{fill:#016B75;}
</style>
<g id="Layer_1-2">
	<path class="st0" d="M118.8,1.4c105-12.3,189,94.7,142.1,192.1c-19.1-8.5-36.9-18.8-55.6-28c-10.8-4.8,14.7-32-14.7-69.1
		C160.1,52.5,86.2,66.7,72.1,117.8c-11.3,33.4,8.2,76,43.5,84.7c17.6,5.2,36.9,5.4,53-4.6c6.5-2.9,13.7-12.8,20.9-11.5
		c20,10.3,40,19.3,59.4,31c-37.1,63.4-74.3,126.8-112,191.2c-23-38-43.6-75.4-65.7-113.7c-24.9-44.1-57.7-85.9-69-136
		C-12,83.7,44.4,12,118.8,1.4z"/>
	<path class="st1" d="M90.4,113.3c32.2,18.3,64.2,35.6,96.1,54.1c-41.8,68.2-137.3,4.9-101.5-57.1C86.7,111.2,88.4,112.1,90.4,113.3
		L90.4,113.3z"/>
</g>
<path class="st2" d="M182.9,160.8c-10.6-6-21-11.8-31.3-17.6c-13.9-7.7-27.8-15.5-41.6-23.2c-7.8-4.4-15.4-8.9-23.2-13.3
	c19.5-33.4,59.7-36.1,84.1-18.7c24.6,17.5,31.8,52.2,17.4,75.8C186.6,162.9,184.9,162,182.9,160.8L182.9,160.8z"/>
</svg>
