<?xml version="1.0" encoding="utf-8"?>
<!-- Generator: Adobe Illustrator 28.0.0, SVG Export Plug-In . SVG Version: 6.00 Build 0)  -->
<svg version="1.1" id="SvgjsSvg1001" xmlns:svgjs="http://svgjs.com/svgjs"
	 xmlns="http://www.w3.org/2000/svg" xmlns:xlink="http://www.w3.org/1999/xlink" x="0px" y="0px" viewBox="0 0 410 410"
	 style="enable-background:new 0 0 410 410;" xml:space="preserve">
<style type="text/css">
	.st0{fill:#064B80;}
	.st1{fill:#D47214;}
	.st2{fill:#016B75;}
</style>
<g id="SvgjsG1000">
	<path class="st0" d="M186.5,1.4c105.6-12.4,190.1,95.2,143,193.3c-19.2-8.5-37.1-19-55.9-28.2c-10.8-4.8,14.8-32.2-14.8-69.5
		c-30.7-44.1-105-29.9-119.2,21.5c-11.3,33.6,8.3,76.4,43.8,85.2c17.7,5.2,37.1,5.4,53.3-4.6c6.5-3,13.8-12.9,21-11.6
		c20.2,10.4,40.2,19.4,59.8,31.2c-37.3,63.8-74.8,127.6-112.7,192.4c-23.2-38.2-43.9-75.9-66.1-114.4c-25-44.4-58.1-86.4-69.4-136.8
		C54.9,84.2,111.6,12,186.5,1.4z"/>
	<path class="st1" d="M157.9,114c32.4,18.4,64.6,35.9,96.7,54.4c-42,68.6-138.1,4.9-102.1-57.5C154.2,111.9,155.9,112.8,157.9,114
		L157.9,114z"/>
</g>
<path class="st2" d="M251,161.8c-10.7-6-21.1-11.9-31.5-17.7c-14-7.7-28-15.6-41.9-23.3c-7.8-4.4-15.5-9-23.3-13.4
	c19.6-33.6,60.1-36.3,84.6-18.8c24.8,17.6,32,52.5,17.5,76.3C254.7,163.9,253,163,251,161.8L251,161.8z"/>
</svg>
