<?xml version="1.0" standalone="no"?>
<!DOCTYPE svg PUBLIC "-//W3C//DTD SVG 20010904//EN"
 "http://www.w3.org/TR/2001/REC-SVG-20010904/DTD/svg10.dtd">
<svg version="1.0" xmlns="http://www.w3.org/2000/svg"
 width="700.000000pt" height="700.000000pt" viewBox="0 0 700.000000 700.000000"
 preserveAspectRatio="xMidYMid meet">
<metadata>
Created by potrace 1.14, written by Peter Selinger 2001-2017
</metadata>
<g transform="translate(0.000000,700.000000) scale(0.100000,-0.100000)"
fill="#000000" stroke="none">
<path d="M3428 6995 c-2 -1 -52 -5 -113 -9 -111 -6 -175 -15 -302 -40 -67 -14
-221 -60 -313 -94 -318 -118 -615 -309 -859 -552 -93 -92 -231 -252 -252 -292
-7 -13 -18 -28 -25 -36 -23 -22 -123 -190 -169 -280 -71 -144 -96 -204 -141
-340 -34 -106 -78 -289 -89 -377 -20 -154 -25 -406 -10 -510 3 -22 8 -60 10
-85 31 -283 238 -820 471 -1223 19 -32 34 -60 34 -62 0 -7 183 -311 377 -625
110 -179 208 -339 217 -355 9 -17 21 -37 26 -45 16 -24 150 -259 188 -330 19
-36 40 -72 46 -80 7 -8 25 -40 40 -70 16 -30 35 -62 42 -71 8 -8 14 -19 14
-22 0 -4 10 -24 23 -45 13 -20 37 -62 54 -92 16 -30 66 -118 110 -195 44 -77
94 -165 111 -195 53 -96 309 -537 440 -758 69 -116 132 -212 139 -212 7 0 21
16 30 35 9 19 20 35 25 35 4 0 8 4 8 10 0 5 109 196 242 422 133 227 248 424
255 438 8 14 23 39 33 55 11 17 27 44 36 60 9 17 84 145 167 285 82 140 158
270 168 288 11 17 27 47 38 65 10 17 68 117 130 221 61 103 111 190 111 193 0
2 8 16 19 31 18 26 582 989 635 1084 l26 47 -137 76 c-76 42 -145 80 -153 85
-8 5 -177 90 -374 190 -435 220 -396 215 -581 74 -304 -232 -594 -283 -1015
-179 -239 58 -425 181 -576 376 -161 210 -248 460 -253 729 -2 117 10 201 50
345 75 265 227 473 457 623 113 74 278 147 378 167 16 3 38 8 49 10 88 19 138
24 263 23 268 0 497 -76 687 -228 160 -128 328 -363 399 -558 25 -70 29 -84
44 -167 15 -82 8 -322 -13 -425 -18 -93 -21 -121 -19 -164 1 -32 8 -54 20 -67
11 -10 84 -51 164 -92 80 -41 190 -98 245 -127 321 -171 563 -286 575 -273 13
13 108 259 125 321 9 31 22 80 29 107 20 71 44 200 52 270 3 33 8 69 10 80 5
24 5 338 0 380 -2 17 -6 57 -10 90 -38 322 -174 683 -371 980 -47 71 -89 132
-93 135 -4 3 -25 27 -47 54 -43 54 -58 71 -144 161 -274 288 -672 527 -1058
635 -94 27 -246 59 -353 74 -19 3 -89 8 -155 12 -66 3 -135 7 -152 8 -18 2
-34 2 -35 1z"/>
<path d="M3365 5663 c-17 -4 -160 -39 -190 -47 -104 -29 -261 -125 -358 -219
-99 -97 -189 -220 -170 -237 7 -6 281 -164 413 -238 25 -13 71 -40 103 -58 32
-19 60 -34 62 -34 2 0 32 -16 67 -36 68 -39 83 -47 353 -197 99 -55 245 -137
325 -182 234 -132 243 -137 290 -163 25 -13 60 -33 77 -44 18 -10 37 -17 43
-13 17 11 71 137 91 214 54 212 42 399 -41 627 -60 164 -216 361 -368 463
-108 73 -255 131 -392 156 -41 8 -275 13 -305 8z"/>
<path d="M2583 5068 c-45 -79 -78 -173 -98 -278 -25 -134 -8 -364 35 -465 74
-173 141 -275 250 -384 220 -218 490 -327 785 -317 134 5 221 25 343 81 157
73 322 221 422 378 l26 42 -215 123 c-119 68 -243 139 -276 157 -33 18 -91 51
-130 72 -38 22 -173 97 -300 168 -126 70 -295 165 -375 210 -183 103 -229 129
-310 173 -36 20 -77 44 -92 54 -36 25 -43 23 -65 -14z"/>
</g>
</svg>
