<?xml version="1.0" encoding="utf-8"?>
<!-- Generator: Adobe Illustrator 28.0.0, SVG Export Plug-In . SVG Version: 6.00 Build 0)  -->
<svg version="1.1" id="Layer_2_00000026145043097805947030000013715558489485735083_"
	 xmlns="http://www.w3.org/2000/svg" xmlns:xlink="http://www.w3.org/1999/xlink" x="0px" y="0px" viewBox="0 0 274.4 407.5"
	 style="enable-background: new 0 0 274.4 407.5" xml:space="preserve">
<style type="text/css">
	.st0{fill:#064B80;}
	.st1{fill:#D47214;}
	.st2{fill:#016B75;}
</style>
<g id="Layer_1-2">
	<path class="st0" d="M 118.8 1.4 c 16.5 -0.5 32.7 -1.1 48.5 2.7 c 20.7 5 39.6 14 56.3 27.7 c 16.8 13.8 29.5 30.6 38.7 50.1 c 6.4 13.7 9.6 28.2 11.5 43.3 c 1.9 15.1 0 29.7 -4.3 44.1 c -2.3 7.9 -5.5 15.5 -8.6 24.2 c -3.2 -1.4 -6.1 -2.6 -8.9 -4 c -15.6 -8 -31.1 -16.1 -46.7 -24 c -3.6 -1.8 -4.1 -3.8 -2.9 -7.5 c 7.2 -22.6 2 -43.3 -11.8 -61.6 c -11 -14.5 -26.2 -23.8 -44.6 -25.9 c -19.4 -2.1 -37.1 2.3 -52.5 15.4 c -10.4 8.8 -17.4 19.3 -21.4 31.9 c -3.3 10.5 -4.2 21.2 -2.1 32.3 c 2.6 13.8 8.3 26.1 18.1 35.9 c 7.7 7.5 16.3 14.4 27.5 16.5 c 5.8 1.1 11.6 3.3 17.4 3.5 c 12.5 0.4 24.7 -1.2 35.6 -8.1 c 5.5 -3.5 10.7 -7.6 16.2 -11.1 c 1.2 -0.8 3.5 -1 4.7 -0.4 c 15.9 7.9 31.6 15.9 47.4 24 c 3.9 2 7.7 4.5 12 7 c -37.1 63.4 -74.3 126.8 -112 191.2 c -5.5 -9.2 -10.4 -17.3 -15.2 -25.5 c -9.5 -16.4 -18.9 -32.8 -28.3 -49.2 c -7.4 -13 -14.6 -26.1 -22.2 -39 c -5.4 -9.2 -11.3 -18.1 -16.7 -27.3 c -11.2 -19.3 -22.5 -38.6 -33.4 -58.1 c -8.9 -15.9 -15.1 -32.8 -18.9 -50.6 c -2.8 -13 -2.6 -26.1 -0.9 -39.3 C 3.4 102 8.7 85.6 17.5 70.6 c 4.9 -8.4 11.1 -16.2 17.2 -23.8 c 4 -5 8.4 -9.9 13.4 -13.8 c 7.5 -5.9 15.2 -11.8 23.6 -15.9 c 10.9 -5.3 22.6 -9.1 34 -13.1 C 109.8 2.4 114.2 2.2 118.8 1.4 L 118.8 1.4 z"/>
	<path class="st1" d="M 90.4 113.3 c 10.6 6 21 11.8 31.3 17.6 c 13.9 7.7 27.8 15.5 41.6 23.2 c 7.8 4.4 15.4 8.9 23.2 13.3 c -19.5 33.4 -59.7 36.1 -84.1 18.7 c -24.6 -17.5 -31.8 -52.2 -17.4 -75.8 C 86.7 111.2 88.4 112.1 90.4 113.3 L 90.4 113.3 z"/>
</g>
<path class="st2" d="M 182.9 160.8 c -10.6 -6 -21 -11.8 -31.3 -17.6 c -13.9 -7.7 -27.8 -15.5 -41.6 -23.2 c -7.8 -4.4 -15.4 -8.9 -23.2 -13.3 c 19.5 -33.4 59.7 -36.1 84.1 -18.7 c 24.6 17.5 31.8 52.2 17.4 75.8 C 186.6 162.9 184.9 162 182.9 160.8 L 182.9 160.8 z"/>
</svg>
